# xmcd
#
# Track frame offsets:
#	150
#	18820
#	34775
#	52255
#	71562
#	94645
#
# Disc length: 1353 seconds
#
# Revision: 1
# Processed by: cddbd v1.5.1PL0 Copyright (c) Steve Scherf et al.
# Submitted via: CDex 1.50Beta5
#
DISCID=47054706
DTITLE=エンジェル隊 - GALAXY ANGEL X'mas CD 2003 Angel X'mas
DYEAR=2003
DGENRE=Anime
TTITLE0=ミルフィーユ・桜葉、蘭花・フランポワーズ/Wake Me UP!
TTITLE1=ミルフィーユ・桜葉、蘭花・フランポワーズ、ミント・ブラマンシュ/Happy Holiday
TTITLE2=ミルフィーユ・桜葉、ミント・ブラマンシュ/どぅびどぅび♪シークレット
TTITLE3=エンジェル隊（新谷良子、田村ゆかり、沢城みゆき、山口眞弓、かないみか）/Eternal Love〜光の天使たち〜エンジェル隊Version
TTITLE4=フォルテ・シュトーレン、ヴァニラ・Ｈ/おうちへ帰ろう
TTITLE5=烏丸ちとせ/ボイスメッセージ
EXTD=
EXTT0=
EXTT1=
EXTT2=
EXTT3=
EXTT4=
EXTT5=
PLAYORDER=
